<svg width="52" height="67" viewBox="0 0 52 67" fill="none" xmlns="http://www.w3.org/2000/svg">
<circle cx="7.25" cy="2.25" r="2.25" fill="#15F6F6"/>
<circle cx="7.25" cy="7.25" r="2.25" fill="#15F6F6"/>
<circle cx="7.25" cy="12.25" r="2.25" fill="#15F6F6"/>
<circle cx="12.25" cy="12.25" r="2.25" fill="#15F6F6"/>
<circle cx="27.25" cy="12.25" r="2.25" fill="#15F6F6"/>
<circle cx="27.25" cy="17.25" r="2.25" fill="#15F6F6"/>
<circle cx="32.25" cy="17.25" r="2.25" fill="#15F6F6"/>
<circle cx="32.25" cy="39.25" r="2.25" fill="#15F6F6"/>
<circle cx="32.25" cy="64.25" r="2.25" fill="#15F6F6"/>
<circle cx="32.25" cy="59.25" r="2.25" fill="#15F6F6"/>
<circle cx="37.25" cy="54.25" r="2.25" fill="#15F6F6"/>
<circle cx="42.25" cy="49.25" r="2.25" fill="#15F6F6"/>
<circle cx="37.25" cy="64.25" r="2.25" fill="#15F6F6"/>
<circle cx="42.25" cy="64.25" r="2.25" fill="#15F6F6"/>
<circle cx="37.25" cy="39.25" r="2.25" fill="#15F6F6"/>
<circle cx="42.25" cy="39.25" r="2.25" fill="#15F6F6"/>
<circle cx="37.25" cy="17.25" r="2.25" fill="#15F6F6"/>
<circle cx="42.25" cy="17.25" r="2.25" fill="#15F6F6"/>
<circle cx="47.25" cy="12.25" r="2.25" fill="#15F6F6"/>
<circle cx="47.25" cy="22.25" r="2.25" fill="#15F6F6"/>
<circle cx="47.25" cy="27.25" r="2.25" fill="#15F6F6"/>
<circle cx="47.25" cy="44.25" r="2.25" fill="#15F6F6"/>
<circle cx="47.25" cy="49.25" r="2.25" fill="#15F6F6"/>
<circle cx="47.25" cy="54.25" r="2.25" fill="#15F6F6"/>
<circle cx="47.25" cy="59.25" r="2.25" fill="#15F6F6"/>
<circle cx="27.25" cy="22.25" r="2.25" fill="#15F6F6"/>
<circle cx="27.25" cy="27.25" r="2.25" fill="#15F6F6"/>
<circle cx="26.25" cy="44.25" r="2.25" fill="#15F6F6"/>
<circle cx="26.25" cy="49.25" r="2.25" fill="#15F6F6"/>
<circle cx="26.25" cy="54.25" r="2.25" fill="#15F6F6"/>
<circle cx="26.25" cy="59.25" r="2.25" fill="#15F6F6"/>
<circle cx="27.25" cy="7.25" r="2.25" fill="#15F6F6"/>
<circle cx="27.25" cy="2.25" r="2.25" fill="#15F6F6"/>
<circle cx="2.25" cy="12.25" r="2.25" fill="#15F6F6"/>
<circle cx="7.25" cy="17.25" r="2.25" fill="#15F6F6"/>
<circle cx="7.25" cy="22.25" r="2.25" fill="#15F6F6"/>
<circle cx="7.25" cy="27.25" r="2.25" fill="#15F6F6"/>
<circle cx="7.25" cy="39.25" r="2.25" fill="#15F6F6"/>
<circle cx="2.25" cy="39.25" r="2.25" fill="#15F6F6"/>
<circle cx="7.25" cy="44.25" r="2.25" fill="#15F6F6"/>
<circle cx="7.25" cy="49.25" r="2.25" fill="#15F6F6"/>
<circle cx="7.25" cy="54.25" r="2.25" fill="#15F6F6"/>
<circle cx="7.25" cy="59.25" r="2.25" fill="#15F6F6"/>
<circle cx="7.25" cy="64.25" r="2.25" fill="#15F6F6"/>
<circle cx="2.25" cy="64.25" r="2.25" fill="#15F6F6"/>
<circle cx="12.25" cy="64.25" r="2.25" fill="#15F6F6"/>
<circle cx="9.25" cy="2.25" r="2.25" fill="#ED0AEB"/>
<circle cx="9.25" cy="7.25" r="2.25" fill="#ED0AEB"/>
<circle cx="9.25" cy="12.25" r="2.25" fill="#ED0AEB"/>
<circle cx="14.25" cy="12.25" r="2.25" fill="#ED0AEB"/>
<circle cx="29.25" cy="12.25" r="2.25" fill="#ED0AEB"/>
<circle cx="29.25" cy="17.25" r="2.25" fill="#ED0AEB"/>
<circle cx="34.25" cy="17.25" r="2.25" fill="#ED0AEB"/>
<circle cx="34.25" cy="39.25" r="2.25" fill="#ED0AEB"/>
<circle cx="34.25" cy="64.25" r="2.25" fill="#ED0AEB"/>
<circle cx="34.25" cy="59.25" r="2.25" fill="#ED0AEB"/>
<circle cx="39.25" cy="54.25" r="2.25" fill="#ED0AEB"/>
<circle cx="44.25" cy="49.25" r="2.25" fill="#ED0AEB"/>
<circle cx="39.25" cy="64.25" r="2.25" fill="#ED0AEB"/>
<circle cx="44.25" cy="64.25" r="2.25" fill="#ED0AEB"/>
<circle cx="39.25" cy="39.25" r="2.25" fill="#ED0AEB"/>
<circle cx="44.25" cy="39.25" r="2.25" fill="#ED0AEB"/>
<circle cx="39.25" cy="17.25" r="2.25" fill="#ED0AEB"/>
<circle cx="44.25" cy="17.25" r="2.25" fill="#ED0AEB"/>
<circle cx="49.25" cy="12.25" r="2.25" fill="#ED0AEB"/>
<circle cx="49.25" cy="22.25" r="2.25" fill="#ED0AEB"/>
<circle cx="49.25" cy="27.25" r="2.25" fill="#ED0AEB"/>
<circle cx="49.25" cy="44.25" r="2.25" fill="#ED0AEB"/>
<circle cx="49.25" cy="49.25" r="2.25" fill="#ED0AEB"/>
<circle cx="49.25" cy="54.25" r="2.25" fill="#ED0AEB"/>
<circle cx="49.25" cy="59.25" r="2.25" fill="#ED0AEB"/>
<circle cx="29.25" cy="22.25" r="2.25" fill="#ED0AEB"/>
<circle cx="29.25" cy="27.25" r="2.25" fill="#ED0AEB"/>
<circle cx="28.25" cy="44.25" r="2.25" fill="#ED0AEB"/>
<circle cx="28.25" cy="49.25" r="2.25" fill="#ED0AEB"/>
<circle cx="28.25" cy="54.25" r="2.25" fill="#ED0AEB"/>
<circle cx="28.25" cy="59.25" r="2.25" fill="#ED0AEB"/>
<circle cx="29.25" cy="7.25" r="2.25" fill="#ED0AEB"/>
<circle cx="29.25" cy="2.25" r="2.25" fill="#ED0AEB"/>
<circle cx="4.25" cy="12.25" r="2.25" fill="#ED0AEB"/>
<circle cx="9.25" cy="17.25" r="2.25" fill="#ED0AEB"/>
<circle cx="9.25" cy="22.25" r="2.25" fill="#ED0AEB"/>
<circle cx="9.25" cy="27.25" r="2.25" fill="#ED0AEB"/>
<circle cx="9.25" cy="39.25" r="2.25" fill="#ED0AEB"/>
<circle cx="4.25" cy="39.25" r="2.25" fill="#ED0AEB"/>
<circle cx="9.25" cy="44.25" r="2.25" fill="#ED0AEB"/>
<circle cx="9.25" cy="49.25" r="2.25" fill="#ED0AEB"/>
<circle cx="9.25" cy="54.25" r="2.25" fill="#ED0AEB"/>
<circle cx="9.25" cy="59.25" r="2.25" fill="#ED0AEB"/>
<circle cx="9.25" cy="64.25" r="2.25" fill="#ED0AEB"/>
<circle cx="4.25" cy="64.25" r="2.25" fill="#ED0AEB"/>
<circle cx="14.25" cy="64.25" r="2.25" fill="#ED0AEB"/>
<circle cx="8.25" cy="2.25" r="2.25" fill="black"/>
<circle cx="8.25" cy="7.25" r="2.25" fill="black"/>
<circle cx="8.25" cy="12.25" r="2.25" fill="black"/>
<circle cx="13.25" cy="12.25" r="2.25" fill="black"/>
<circle cx="28.25" cy="12.25" r="2.25" fill="black"/>
<circle cx="28.25" cy="17.25" r="2.25" fill="black"/>
<circle cx="33.25" cy="17.25" r="2.25" fill="black"/>
<circle cx="33.25" cy="39.25" r="2.25" fill="black"/>
<circle cx="33.25" cy="64.25" r="2.25" fill="black"/>
<circle cx="33.25" cy="59.25" r="2.25" fill="black"/>
<circle cx="38.25" cy="54.25" r="2.25" fill="black"/>
<circle cx="43.25" cy="49.25" r="2.25" fill="black"/>
<circle cx="38.25" cy="64.25" r="2.25" fill="black"/>
<circle cx="43.25" cy="64.25" r="2.25" fill="black"/>
<circle cx="38.25" cy="39.25" r="2.25" fill="black"/>
<circle cx="43.25" cy="39.25" r="2.25" fill="black"/>
<circle cx="38.25" cy="17.25" r="2.25" fill="black"/>
<circle cx="43.25" cy="17.25" r="2.25" fill="black"/>
<circle cx="48.25" cy="12.25" r="2.25" fill="black"/>
<circle cx="48.25" cy="22.25" r="2.25" fill="black"/>
<circle cx="48.25" cy="27.25" r="2.25" fill="black"/>
<circle cx="48.25" cy="44.25" r="2.25" fill="black"/>
<circle cx="48.25" cy="49.25" r="2.25" fill="black"/>
<circle cx="48.25" cy="54.25" r="2.25" fill="black"/>
<circle cx="48.25" cy="59.25" r="2.25" fill="black"/>
<circle cx="28.25" cy="22.25" r="2.25" fill="black"/>
<circle cx="28.25" cy="27.25" r="2.25" fill="black"/>
<circle cx="27.25" cy="44.25" r="2.25" fill="black"/>
<circle cx="27.25" cy="49.25" r="2.25" fill="black"/>
<circle cx="27.25" cy="54.25" r="2.25" fill="black"/>
<circle cx="27.25" cy="59.25" r="2.25" fill="black"/>
<circle cx="28.25" cy="7.25" r="2.25" fill="black"/>
<circle cx="28.25" cy="2.25" r="2.25" fill="black"/>
<circle cx="3.25" cy="12.25" r="2.25" fill="black"/>
<circle cx="8.25" cy="17.25" r="2.25" fill="black"/>
<circle cx="8.25" cy="22.25" r="2.25" fill="black"/>
<circle cx="8.25" cy="27.25" r="2.25" fill="black"/>
<circle cx="8.25" cy="39.25" r="2.25" fill="black"/>
<circle cx="3.25" cy="39.25" r="2.25" fill="black"/>
<circle cx="8.25" cy="44.25" r="2.25" fill="black"/>
<circle cx="8.25" cy="49.25" r="2.25" fill="black"/>
<circle cx="8.25" cy="54.25" r="2.25" fill="black"/>
<circle cx="8.25" cy="59.25" r="2.25" fill="black"/>
<circle cx="8.25" cy="64.25" r="2.25" fill="black"/>
<circle cx="3.25" cy="64.25" r="2.25" fill="black"/>
<circle cx="13.25" cy="64.25" r="2.25" fill="black"/>
</svg>
