<svg width="224" height="61" viewBox="0 0 224 61" fill="none" xmlns="http://www.w3.org/2000/svg">
<path d="M38.8594 28.8535C38.8594 28.1445 38.6104 27.5849 38.1123 27.1748C37.6143 26.7588 36.7031 26.3662 35.3789 25.997C34.0547 25.622 33.0879 25.2148 32.4785 24.7754C31.6113 24.1543 31.1777 23.3398 31.1777 22.332C31.1777 21.3535 31.5791 20.5595 32.3819 19.9502C33.1904 19.3349 34.2217 19.0273 35.4756 19.0273C36.3252 19.0273 37.084 19.1914 37.752 19.5195C38.4258 19.8476 38.9473 20.3047 39.3164 20.8906C39.6856 21.4765 39.8701 22.1299 39.8701 22.8506H38.7803C38.7803 21.9775 38.4815 21.2773 37.8838 20.75C37.2861 20.2168 36.4834 19.9502 35.4756 19.9502C34.4971 19.9502 33.7178 20.1699 33.1377 20.6093C32.5576 21.0429 32.2676 21.6113 32.2676 22.3144C32.2676 22.9648 32.5283 23.4951 33.0498 23.9052C33.5713 24.3154 34.4063 24.6787 35.5547 24.9951C36.7031 25.3056 37.5733 25.6308 38.1651 25.9707C38.7569 26.3047 39.2022 26.706 39.501 27.1748C39.7998 27.6435 39.9492 28.1972 39.9492 28.8359C39.9492 29.8437 39.5449 30.6523 38.7363 31.2617C37.9336 31.8711 36.8731 32.1758 35.5547 32.1758C34.6524 32.1758 33.8233 32.0146 33.0674 31.6924C32.3174 31.3701 31.7461 30.9189 31.3535 30.3388C30.9668 29.7588 30.7735 29.0937 30.7735 28.3437H31.8545C31.8545 29.2461 32.1914 29.958 32.8652 30.4795C33.5391 31.0009 34.4356 31.2617 35.5547 31.2617C36.5508 31.2617 37.3506 31.042 37.9541 30.6025C38.5576 30.1631 38.8594 29.58 38.8594 28.8535ZM50.9886 28.0097C50.8422 29.3574 50.3588 30.3886 49.5385 31.1035C48.724 31.8183 47.6371 32.1758 46.2777 32.1758C45.3285 32.1758 44.4877 31.9384 43.7552 31.4638C43.0287 30.9892 42.4662 30.3183 42.0677 29.4511C41.6693 28.5781 41.4672 27.582 41.4613 26.4629V24.8017C41.4613 23.665 41.6605 22.6572 42.059 21.7783C42.4574 20.8994 43.0287 20.2226 43.7728 19.748C44.5228 19.2675 45.3842 19.0273 46.3568 19.0273C47.7279 19.0273 48.809 19.3994 49.6 20.1435C50.3969 20.8818 50.8597 21.9043 50.9886 23.2109H49.8988C49.6293 21.0371 48.4486 19.9502 46.3568 19.9502C45.1967 19.9502 44.2709 20.3838 43.5795 21.2509C42.8939 22.1181 42.5511 23.3164 42.5511 24.8457V26.4101C42.5511 27.8867 42.8851 29.0644 43.5531 29.9433C44.2269 30.8222 45.1351 31.2617 46.2777 31.2617C47.4086 31.2617 48.2611 30.9922 48.8353 30.4531C49.4095 29.9082 49.764 29.0937 49.8988 28.0097H50.9886ZM58.0378 26.6738H54.3201V32H53.2302V19.2031H57.3874C58.7527 19.2031 59.8191 19.5341 60.5867 20.1963C61.3542 20.8584 61.738 21.7841 61.738 22.9736C61.738 23.7939 61.4978 24.5175 61.0173 25.1445C60.5369 25.7715 59.8923 26.205 59.0837 26.4453L62.2829 31.8857V32H61.1316L58.0378 26.6738ZM54.3201 25.7509H57.6335C58.5417 25.7509 59.2712 25.4931 59.822 24.9775C60.3728 24.4619 60.6482 23.7939 60.6482 22.9736C60.6482 22.0713 60.3611 21.3711 59.7869 20.873C59.2126 20.375 58.407 20.1259 57.3699 20.1259H54.3201V25.7509ZM73.7794 26.2959C73.7794 27.4736 73.5743 28.5078 73.1642 29.3984C72.7599 30.289 72.1798 30.9746 71.4239 31.455C70.6681 31.9355 69.795 32.1758 68.8048 32.1758C67.3106 32.1758 66.1036 31.6425 65.1837 30.5761C64.2638 29.5039 63.8038 28.0595 63.8038 26.2431V24.9248C63.8038 23.7588 64.0089 22.7275 64.419 21.831C64.8351 20.9287 65.421 20.2373 66.1768 19.7568C66.9327 19.2705 67.8028 19.0273 68.7872 19.0273C69.7716 19.0273 70.6388 19.2646 71.3888 19.7392C72.1446 20.2138 72.7276 20.8847 73.1378 21.7519C73.5479 22.6191 73.7618 23.624 73.7794 24.7666V26.2959ZM72.6983 24.9072C72.6983 23.3662 72.3497 22.1591 71.6524 21.2861C70.9552 20.4131 70.0001 19.9765 68.7872 19.9765C67.5977 19.9765 66.6485 20.416 65.9395 21.2949C65.2364 22.1679 64.8849 23.3896 64.8849 24.9599V26.2959C64.8849 27.8134 65.2364 29.0175 65.9395 29.9082C66.6427 30.7929 67.5977 31.2353 68.8048 31.2353C70.0294 31.2353 70.9845 30.7988 71.67 29.9258C72.3556 29.0468 72.6983 27.8252 72.6983 26.2607V24.9072ZM77.2338 31.0859H83.5532V32H76.144V19.2031H77.2338V31.0859ZM86.366 31.0859H92.6854V32H85.2762V19.2031H86.366V31.0859ZM106.757 20.1259H102.372V32H101.291V20.1259H96.9136V19.2031H106.757V20.1259ZM117.683 26.2959C117.683 27.4736 117.477 28.5078 117.067 29.3984C116.663 30.289 116.083 30.9746 115.327 31.455C114.571 31.9355 113.698 32.1758 112.708 32.1758C111.214 32.1758 110.007 31.6425 109.087 30.5761C108.167 29.5039 107.707 28.0595 107.707 26.2431V24.9248C107.707 23.7588 107.912 22.7275 108.322 21.831C108.738 20.9287 109.324 20.2373 110.08 19.7568C110.836 19.2705 111.706 19.0273 112.69 19.0273C113.675 19.0273 114.542 19.2646 115.292 19.7392C116.048 20.2138 116.631 20.8847 117.041 21.7519C117.451 22.6191 117.665 23.624 117.683 24.7666V26.2959ZM116.601 24.9072C116.601 23.3662 116.253 22.1591 115.556 21.2861C114.858 20.4131 113.903 19.9765 112.69 19.9765C111.501 19.9765 110.552 20.416 109.843 21.2949C109.14 22.1679 108.788 23.3896 108.788 24.9599V26.2959C108.788 27.8134 109.14 29.0175 109.843 29.9082C110.546 30.7929 111.501 31.2353 112.708 31.2353C113.933 31.2353 114.888 30.7988 115.573 29.9258C116.259 29.0468 116.601 27.8252 116.601 26.2607V24.9072ZM131.13 25.8652H125.145V31.0859H132.027V32H124.064V19.2031H131.983V20.1259H125.145V24.9511H131.13V25.8652ZM137.846 24.6172L141.449 19.2031H142.741L138.505 25.5136L142.873 32H141.572L137.846 26.4101L134.102 32H132.818L137.195 25.5136L132.95 19.2031H134.242L137.846 24.6172ZM145.695 26.7881V32H144.614V19.2031H148.973C150.303 19.2031 151.352 19.5429 152.119 20.2226C152.893 20.9023 153.28 21.8369 153.28 23.0263C153.28 24.2275 152.908 25.1562 152.163 25.8125C151.425 26.4629 150.353 26.7881 148.947 26.7881H145.695ZM145.695 25.874H148.973C150.022 25.874 150.822 25.625 151.372 25.1269C151.923 24.6289 152.199 23.9345 152.199 23.0439C152.199 22.1591 151.923 21.456 151.372 20.9345C150.827 20.4072 150.051 20.1377 149.043 20.1259H145.695V25.874ZM156.435 31.0859H162.755V32H155.345V19.2031H156.435V31.0859ZM173.355 26.2959C173.355 27.4736 173.149 28.5078 172.739 29.3984C172.335 30.289 171.755 30.9746 170.999 31.455C170.243 31.9355 169.37 32.1758 168.38 32.1758C166.886 32.1758 165.679 31.6425 164.759 30.5761C163.839 29.5039 163.379 28.0595 163.379 26.2431V24.9248C163.379 23.7588 163.584 22.7275 163.994 21.831C164.41 20.9287 164.996 20.2373 165.752 19.7568C166.508 19.2705 167.378 19.0273 168.362 19.0273C169.347 19.0273 170.214 19.2646 170.964 19.7392C171.72 20.2138 172.303 20.8847 172.713 21.7519C173.123 22.6191 173.337 23.624 173.355 24.7666V26.2959ZM172.273 24.9072C172.273 23.3662 171.925 22.1591 171.228 21.2861C170.53 20.4131 169.575 19.9765 168.362 19.9765C167.173 19.9765 166.224 20.416 165.515 21.2949C164.812 22.1679 164.46 23.3896 164.46 24.9599V26.2959C164.46 27.8134 164.812 29.0175 165.515 29.9082C166.218 30.7929 167.173 31.2353 168.38 31.2353C169.605 31.2353 170.56 30.7988 171.245 29.9258C171.931 29.0468 172.273 27.8252 172.273 26.2607V24.9072ZM180.5 26.6738H176.783V32H175.693V19.2031H179.85C181.215 19.2031 182.282 19.5341 183.049 20.1963C183.817 20.8584 184.201 21.7841 184.201 22.9736C184.201 23.7939 183.96 24.5175 183.48 25.1445C182.999 25.7715 182.355 26.205 181.546 26.4453L184.746 31.8857V32H183.594L180.5 26.6738ZM176.783 25.7509H180.096C181.004 25.7509 181.734 25.4931 182.285 24.9775C182.835 24.4619 183.111 23.7939 183.111 22.9736C183.111 22.0713 182.824 21.3711 182.249 20.873C181.675 20.375 180.87 20.1259 179.832 20.1259H176.783V25.7509ZM193.851 25.8652H187.866V31.0859H194.748V32H186.785V19.2031H194.704V20.1259H187.866V24.9511H193.851V25.8652Z" fill="white"/>
<line x1="4.37114e-08" y1="0.5" x2="224" y2="0.50002" stroke="white"/>
<line x1="1.53025e-05" y1="50.5" x2="103" y2="50.5" stroke="white"/>
<line x1="121" y1="50.5" x2="224" y2="50.5" stroke="white"/>
<path d="M121 50.35L112 59.35L103 50.35" stroke="white"/>
</svg>
